<?xml version="1.0" ?><!DOCTYPE svg  PUBLIC '-//W3C//DTD SVG 1.1//EN'  'http://www.w3.org/Graphics/SVG/1.1/DTD/svg11.dtd'><svg enable-background="new 0 0 32 32" height="32px" id="Слой_1" version="1.1" viewBox="0 0 32 32" width="32px" xml:space="preserve" xmlns="http://www.w3.org/2000/svg" xmlns:xlink="http://www.w3.org/1999/xlink"><path clip-rule="evenodd" d="M0.298,16.716  c0.011,0.011,6.947,6.993,6.947,6.993c0.203,0.203,0.47,0.298,0.735,0.291c0.008,0,0.015,0.005,0.023,0.005h23  c0.88,0,1.32-1.109,0.705-1.727l-6.242-6.295l6.169-6.222c0.664-0.619,0.367-1.759-0.845-1.757H8.012  c-0.278-0.018-0.561,0.07-0.774,0.284l-6.94,6.999C-0.095,15.682-0.095,16.322,0.298,16.716z M8.368,10.012l20.187-0.006  l-5.21,5.254c-0.199,0.2-0.295,0.462-0.293,0.724c-0.003,0.262,0.094,0.524,0.293,0.724l5.253,5.297H8.394l-5.959-6.01L8.368,10.012  z" fill="#121313" fill-rule="evenodd" id="Vintage_Luxury_Arrow_Left"/><g/><g/><g/><g/><g/><g/></svg>